<?xml version="1.0" encoding="UTF-8"?>
<svg id="Layer_1" data-name="Layer 1" xmlns="http://www.w3.org/2000/svg" viewBox="0 0 4262.34 711.59">
  <defs>
    <style>
      .cls-1 {
        fill: #f6f6f9;
      }
    </style>
  </defs>
  <path class="cls-1" d="M126.08,169.59c-4.28-10.92-9.15-19.24-14.61-24.94-5.47-5.7-12.83-9.85-22.09-12.47-9.26-2.61-22.69-4.63-40.27-6.06v-26.37h293.62v26.37c-19.96.96-34.92,2.49-44.9,4.63-9.98,2.14-16.64,4.88-19.96,8.2-3.33,3.33-4.99,8.08-4.99,14.25,0,5.7,1.43,12.59,4.28,20.67l95.5,293.62h4.28l90.51-235.9-24.23-62c-4.28-10.92-9.15-19.24-14.61-24.94-5.47-5.7-12.83-9.85-22.09-12.47-9.26-2.61-22.69-4.63-40.27-6.06v-26.37h293.62v26.37c-26.61,1.43-44.9,4.04-54.88,7.84-9.98,3.81-14.97,10.22-14.97,19.24,0,5.7,1.43,12.59,4.28,20.67l95.5,293.62h4.28l101.2-263.69c5.22-13.77,7.84-24.94,7.84-33.5,0-12.35-6.06-21.97-18.17-28.86-12.12-6.88-32.67-11.99-61.65-15.32v-26.37h220.22v26.37c-21.38,3.33-37.77,7.37-49.18,12.12-11.4,4.75-20.79,12.12-28.15,22.09-7.37,9.98-14.86,24.94-22.45,44.9l-176.03,450.41h-34.21l-141.82-361.33-141.11,361.33h-34.21L126.08,169.59Z"/>
  <path class="cls-1" d="M1431.69,623.56v24.94h-213.8v-24.94l49.89-14.25v-159.64c0-27.08-.48-46.43-1.43-58.08-.96-11.64-2.85-20.78-5.7-27.44-11.88-26.12-33.03-39.2-63.43-39.2-23.76,0-43.95,8.32-60.58,24.94v259.41l49.89,14.25v24.94h-213.8v-24.94l53.45-14.25V128.25l-54.16-19.96v-16.39l148.95-34.92h15.68v250.15c16.63-13.3,36.81-23.87,60.58-31.71,23.75-7.84,46.79-11.76,69.13-11.76,48.93,0,82.67,19.01,101.2,57.01,4.28,9.03,7.13,20.08,8.55,33.14,1.43,13.07,2.14,35.76,2.14,68.06v187.43l53.45,14.25Z"/>
  <path class="cls-1" d="M1855.02,441.83h-259.41c.47,47.52,9.98,82.79,28.51,105.83,18.53,23.05,46.32,34.56,83.38,34.56,21.85,0,43.35-4.03,64.5-12.12,21.14-8.07,38.36-19.71,51.67-34.92l4.99-5.7,19.96,17.1-3.56,8.55c-12.83,31.36-34.81,55.95-65.92,73.76-31.12,17.82-66.4,26.73-105.83,26.73s-73.29-7.95-102.98-23.88c-29.7-15.91-52.63-38.24-68.77-66.99-16.16-28.74-24.23-61.88-24.23-99.42,0-39.43,9.02-74.48,27.08-105.12,18.05-30.65,43.23-54.4,75.54-71.27,32.3-16.86,69.36-25.3,111.18-25.3,54.16,0,95.5,14.73,124.01,44.19,28.51,29.46,43.71,72.69,45.61,129.71l-5.7,4.28ZM1745.26,375.55c0-24.7-5.47-43.47-16.39-56.3-10.93-12.83-26.61-19.24-47.04-19.24-24.23,0-43.6,9.26-58.08,27.79-14.5,18.53-23.41,45.14-26.73,79.82l145.39-4.99c1.89-5.7,2.85-14.72,2.85-27.08Z"/>
  <path class="cls-1" d="M2016.43,650.29c-13.54-3.56-24.59-8.43-33.14-14.61-9.98-7.59-16.99-17.93-21.02-31-4.04-13.06-6.06-29.81-6.06-50.24v-248.01h-50.6l-4.28-22.09,143.25-109.04,22.09,3.56v91.94h110.46l-10.69,35.63h-99.77v223.78c0,17.58.47,29.93,1.43,37.06.95,7.13,2.85,12.83,5.7,17.1,8.07,13.31,20.67,19.96,37.77,19.96,18.05,0,32.78-6.65,44.19-19.96l16.39,23.52c-12.36,15.68-28.4,27.56-48.11,35.63-19.72,8.07-41.69,12.12-65.92,12.12-14.25,0-28.15-1.78-41.69-5.35Z"/>
  <path class="cls-1" d="M2431.55,266.87c17.1,2.14,30.88,5.11,41.33,8.91v99.06h-27.79c-6.66-50.35-30.41-75.54-71.27-75.54-16.16,0-29.22,3.92-39.2,11.76-9.98,7.84-14.97,18.17-14.97,31,0,13.79,5.22,24.94,15.68,33.5,10.45,8.55,27.32,18.53,50.6,29.93,22.33,10.94,40.5,21.02,54.52,30.29,14.01,9.26,26.01,21.98,35.99,38.13,9.98,16.16,14.97,36.11,14.97,59.86,0,38.49-13.54,68.42-40.62,89.8-27.08,21.38-65.1,32.07-114.03,32.07-18.53,0-38.02-1.31-58.44-3.92-20.43-2.62-38.02-6.29-52.74-11.05l-4.28-116.17h30.65c1.89,30.89,9.98,54.52,24.23,70.91s33.73,24.59,58.44,24.59c18.05,0,32.66-4.74,43.83-14.25,11.16-9.5,16.75-21.85,16.75-37.06s-5.59-27.44-16.75-36.7c-11.17-9.26-28.86-20.31-53.09-33.14-21.86-10.92-39.68-21.02-53.45-30.29-13.79-9.27-25.54-21.74-35.28-37.42-9.74-15.68-14.61-34.92-14.61-57.73,0-36.1,13.18-63.43,39.55-81.96,26.37-18.53,65.44-27.79,117.23-27.79,18.05,0,35.63,1.07,52.74,3.21Z"/>
  <path class="cls-1" d="M2654.26,650.29c-13.54-3.56-24.59-8.43-33.14-14.61-9.98-7.59-16.99-17.93-21.02-31-4.04-13.06-6.06-29.81-6.06-50.24v-248.01h-50.6l-4.28-22.09,143.25-109.04,22.09,3.56v91.94h110.46l-10.69,35.63h-99.77v223.78c0,17.58.47,29.93,1.43,37.06.95,7.13,2.85,12.83,5.7,17.1,8.07,13.31,20.67,19.96,37.77,19.96,18.05,0,32.78-6.65,44.19-19.96l16.39,23.52c-12.36,15.68-28.4,27.56-48.11,35.63-19.72,8.07-41.69,12.12-65.92,12.12-14.25,0-28.15-1.78-41.69-5.35Z"/>
  <path class="cls-1" d="M3161.68,289.67c30.64,17.35,53.92,40.87,69.84,70.55,15.91,29.7,23.88,62.84,23.88,99.42s-7.96,69.73-23.88,99.42c-15.92,29.7-39.2,53.22-69.84,70.55-30.65,17.35-67.11,26.01-109.4,26.01s-78.75-8.66-109.4-26.01c-30.64-17.34-53.93-40.86-69.84-70.55-15.92-29.69-23.88-62.83-23.88-99.42s7.95-69.72,23.88-99.42c15.91-29.69,39.2-53.21,69.84-70.55,30.65-17.34,67.1-26.01,109.4-26.01s78.75,8.67,109.4,26.01ZM2987.08,571.89c12.12,31.6,33.85,47.39,65.21,47.39s52.49-15.91,64.85-47.75c12.35-31.83,18.53-69.13,18.53-111.89s-6.06-79.93-18.17-111.53c-12.12-31.59-33.85-47.39-65.21-47.39s-53.09,15.8-65.21,47.39c-12.12,31.6-18.17,68.77-18.17,111.53s6.06,80.66,18.17,112.25Z"/>
  <path class="cls-1" d="M3762.82,623.56v24.94h-213.8v-24.94l49.89-14.25v-159.64c0-28.03-.48-47.75-1.42-59.15-.96-11.4-2.85-20.19-5.7-26.37-4.75-11.87-12.59-20.9-23.52-27.08-10.94-6.17-24-9.26-39.2-9.26-12.36,0-23.16,2.14-32.43,6.41s-17.71,11.17-25.3,20.67v254.42l49.89,14.25v24.94h-213.8v-24.94l53.45-14.25v-274.38l-54.16-19.96v-16.39l145.39-34.92h15.68v52.74c16.62-16.15,36.81-28.97,60.58-38.48,23.75-9.5,47.27-14.25,70.55-14.25s43.47,4.99,60.58,14.97c17.1,9.98,30.17,24,39.2,42.05,4.28,9.51,7.13,20.91,8.55,34.21,1.42,13.31,2.14,35.63,2.14,66.99v187.43l53.45,14.25Z"/>
  <path class="cls-1" d="M4186.14,441.83h-259.41c.47,47.52,9.98,82.79,28.51,105.83,18.53,23.05,46.32,34.56,83.38,34.56,21.85,0,43.35-4.03,64.5-12.12,21.14-8.07,38.36-19.71,51.67-34.92l4.99-5.7,19.96,17.1-3.56,8.55c-12.83,31.36-34.81,55.95-65.92,73.76-31.12,17.82-66.4,26.73-105.83,26.73s-73.29-7.95-102.98-23.88c-29.7-15.91-52.63-38.24-68.77-66.99-16.16-28.74-24.23-61.88-24.23-99.42,0-39.43,9.02-74.48,27.08-105.12,18.05-30.65,43.23-54.4,75.54-71.27,32.3-16.86,69.36-25.3,111.18-25.3,54.16,0,95.5,14.73,124.01,44.19,28.51,29.46,43.71,72.69,45.61,129.71l-5.7,4.28ZM4076.39,375.55c0-24.7-5.47-43.47-16.39-56.3-10.93-12.83-26.61-19.24-47.04-19.24-24.23,0-43.6,9.26-58.08,27.79-14.5,18.53-23.41,45.14-26.73,79.82l145.39-4.99c1.89-5.7,2.85-14.72,2.85-27.08Z"/>
</svg>
